<mxfile host="65bd71144e">
    <diagram id="R2lEEEUBdFMjLlhIrx00" name="Page-1">
        <mxGraphModel dx="868" dy="2611" grid="1" gridSize="10" guides="1" tooltips="1" connect="1" arrows="1" fold="1" page="1" pageScale="1" pageWidth="2000" pageHeight="2000" math="0" shadow="0" extFonts="Permanent Marker^https://fonts.googleapis.com/css?family=Permanent+Marker">
            <root>
                <mxCell id="0"/>
                <mxCell id="1" parent="0"/>
                <mxCell id="116" style="edgeStyle=none;html=1;endArrow=none;endFill=0;" parent="1" source="112" edge="1">
                    <mxGeometry relative="1" as="geometry">
                        <mxPoint x="1000" y="-1140" as="targetPoint"/>
                    </mxGeometry>
                </mxCell>
                <mxCell id="118" style="edgeStyle=none;html=1;endArrow=none;endFill=0;" parent="1" source="112" target="132" edge="1">
                    <mxGeometry relative="1" as="geometry">
                        <mxPoint x="937.5393113604542" y="-1111.167666694164" as="targetPoint"/>
                    </mxGeometry>
                </mxCell>
                <mxCell id="120" style="edgeStyle=none;html=1;endArrow=none;endFill=0;" parent="1" source="112" edge="1">
                    <mxGeometry relative="1" as="geometry">
                        <mxPoint x="1109.8900205605069" y="-1139.995862460718" as="targetPoint"/>
                    </mxGeometry>
                </mxCell>
                <mxCell id="122" style="edgeStyle=none;html=1;endArrow=none;endFill=0;" parent="1" source="112" edge="1">
                    <mxGeometry relative="1" as="geometry">
                        <mxPoint x="1011.298664070093" y="-1139.428870840299" as="targetPoint"/>
                    </mxGeometry>
                </mxCell>
                <mxCell id="124" style="edgeStyle=none;html=1;endArrow=none;endFill=0;" parent="1" source="112" edge="1">
                    <mxGeometry relative="1" as="geometry">
                        <mxPoint x="1151.9998710269147" y="-1091.7350622557506" as="targetPoint"/>
                    </mxGeometry>
                </mxCell>
                <mxCell id="126" style="edgeStyle=none;html=1;endArrow=none;endFill=0;" parent="1" source="112" edge="1">
                    <mxGeometry relative="1" as="geometry">
                        <mxPoint x="990" y="-1130" as="targetPoint"/>
                    </mxGeometry>
                </mxCell>
                <mxCell id="128" style="edgeStyle=none;html=1;endArrow=none;endFill=0;" parent="1" source="112" edge="1">
                    <mxGeometry relative="1" as="geometry">
                        <mxPoint x="1146.9347781146275" y="-1040.594271231923" as="targetPoint"/>
                    </mxGeometry>
                </mxCell>
                <mxCell id="112" value="Usuario&lt;span style=&quot;background-color: transparent;&quot;&gt;&amp;nbsp;Autenticado&lt;/span&gt;" style="shape=umlActor;verticalLabelPosition=bottom;verticalAlign=top;html=1;outlineConnect=0;" parent="1" vertex="1">
                    <mxGeometry x="1026.8200000000002" y="-1073.98" width="30" height="60" as="geometry"/>
                </mxCell>
                <mxCell id="132" value="&lt;font style=&quot;font-size: 11px; line-height: 100%;&quot;&gt;Configurar perfil&lt;/font&gt;&lt;div style=&quot;line-height: 100%;&quot;&gt;&lt;font style=&quot;font-size: 11px; line-height: 100%;&quot;&gt;---------------------------------------&lt;/font&gt;&lt;/div&gt;&lt;div style=&quot;line-height: 100%;&quot;&gt;&lt;b&gt;&lt;font style=&quot;font-size: 11px; line-height: 100%;&quot;&gt;Extension Points&lt;/font&gt;&lt;/b&gt;&lt;/div&gt;&lt;div style=&quot;line-height: 100%;&quot;&gt;&lt;font style=&quot;font-size: 11px; line-height: 100%;&quot;&gt;Modificar datos personales&lt;/font&gt;&lt;/div&gt;&lt;div style=&quot;line-height: 100%;&quot;&gt;&lt;span style=&quot;font-size: 11px;&quot;&gt;Restaurar contrase침a&lt;/span&gt;&lt;/div&gt;&lt;div style=&quot;line-height: 100%;&quot;&gt;&lt;span style=&quot;color: rgb(63, 63, 63); font-size: 11px;&quot;&gt;Cerrar sesi칩n&lt;/span&gt;&lt;span style=&quot;font-size: 11px;&quot;&gt;&lt;/span&gt;&lt;/div&gt;&lt;div style=&quot;line-height: 100%;&quot;&gt;&lt;span style=&quot;font-size: 11px;&quot;&gt;Eliminar cuenta&lt;/span&gt;&lt;/div&gt;" style="ellipse;whiteSpace=wrap;html=1;" parent="1" vertex="1">
                    <mxGeometry x="750" y="-1090" width="160" height="100" as="geometry"/>
                </mxCell>
                <mxCell id="133" value="Modificar datos personales" style="ellipse;whiteSpace=wrap;html=1;" parent="1" vertex="1">
                    <mxGeometry x="670" y="-963.98" width="100" height="60" as="geometry"/>
                </mxCell>
                <mxCell id="134" value="" style="endArrow=classic;html=1;dashed=1;" parent="1" source="133" target="132" edge="1">
                    <mxGeometry width="50" height="50" relative="1" as="geometry">
                        <mxPoint x="760.9509856537802" y="-1164.5328373118864" as="sourcePoint"/>
                        <mxPoint x="810.6399999999999" y="-1110" as="targetPoint"/>
                    </mxGeometry>
                </mxCell>
                <mxCell id="135" value="&amp;lt;&amp;lt;Extend&amp;gt;&amp;gt;" style="edgeLabel;html=1;align=center;verticalAlign=middle;resizable=0;points=[];" parent="134" vertex="1" connectable="0">
                    <mxGeometry x="-0.129" y="1" relative="1" as="geometry">
                        <mxPoint x="-33" y="-3" as="offset"/>
                    </mxGeometry>
                </mxCell>
                <mxCell id="136" value="&lt;span style=&quot;color: rgb(63, 63, 63); font-size: 11px;&quot;&gt;Restaurar contrase침a&lt;/span&gt;" style="ellipse;whiteSpace=wrap;html=1;" parent="1" vertex="1">
                    <mxGeometry x="590" y="-1013.98" width="90" height="50" as="geometry"/>
                </mxCell>
                <mxCell id="137" value="" style="endArrow=classic;html=1;dashed=1;" parent="1" source="136" target="132" edge="1">
                    <mxGeometry width="50" height="50" relative="1" as="geometry">
                        <mxPoint x="860.9509856537802" y="-1244.5328373118864" as="sourcePoint"/>
                        <mxPoint x="828.2855416592513" y="-1162.791046327605" as="targetPoint"/>
                    </mxGeometry>
                </mxCell>
                <mxCell id="138" value="&amp;lt;&amp;lt;Extend&amp;gt;&amp;gt;" style="edgeLabel;html=1;align=center;verticalAlign=middle;resizable=0;points=[];" parent="137" vertex="1" connectable="0">
                    <mxGeometry x="-0.129" y="1" relative="1" as="geometry">
                        <mxPoint x="-16" y="-10" as="offset"/>
                    </mxGeometry>
                </mxCell>
                <mxCell id="139" value="&lt;span style=&quot;color: rgb(63, 63, 63); font-size: 11px;&quot;&gt;Cerrar sesi칩n&lt;/span&gt;" style="ellipse;whiteSpace=wrap;html=1;" parent="1" vertex="1">
                    <mxGeometry x="603.41" y="-1080" width="63.18" height="40" as="geometry"/>
                </mxCell>
                <mxCell id="140" value="" style="endArrow=classic;html=1;dashed=1;" parent="1" source="139" target="132" edge="1">
                    <mxGeometry width="50" height="50" relative="1" as="geometry">
                        <mxPoint x="957.7709856537801" y="-1285.5328373118864" as="sourcePoint"/>
                        <mxPoint x="931.8199999999999" y="-1150" as="targetPoint"/>
                    </mxGeometry>
                </mxCell>
                <mxCell id="141" value="&amp;lt;&amp;lt;Extend&amp;gt;&amp;gt;" style="edgeLabel;html=1;align=center;verticalAlign=middle;resizable=0;points=[];" parent="140" vertex="1" connectable="0">
                    <mxGeometry x="-0.129" y="1" relative="1" as="geometry">
                        <mxPoint x="-3" y="-16" as="offset"/>
                    </mxGeometry>
                </mxCell>
                <mxCell id="142" value="&lt;span style=&quot;color: rgb(63, 63, 63); font-size: 11px;&quot;&gt;Eliminar cuenta&lt;/span&gt;" style="ellipse;whiteSpace=wrap;html=1;" parent="1" vertex="1">
                    <mxGeometry x="663.18" y="-1140" width="63.18" height="40" as="geometry"/>
                </mxCell>
                <mxCell id="143" value="" style="endArrow=classic;html=1;dashed=1;" parent="1" source="142" target="132" edge="1">
                    <mxGeometry width="50" height="50" relative="1" as="geometry">
                        <mxPoint x="1077.1509856537803" y="-1275.5328373118864" as="sourcePoint"/>
                        <mxPoint x="894.2637868269912" y="-1094.8897595072087" as="targetPoint"/>
                    </mxGeometry>
                </mxCell>
                <mxCell id="144" value="&amp;lt;&amp;lt;Extend&amp;gt;&amp;gt;" style="edgeLabel;html=1;align=center;verticalAlign=middle;resizable=0;points=[];" parent="143" vertex="1" connectable="0">
                    <mxGeometry x="-0.129" y="1" relative="1" as="geometry">
                        <mxPoint x="28" y="-7" as="offset"/>
                    </mxGeometry>
                </mxCell>
                <mxCell id="145" style="edgeStyle=none;html=1;endArrow=none;endFill=0;" edge="1" parent="1" source="152" target="153">
                    <mxGeometry relative="1" as="geometry">
                        <mxPoint x="307.5" y="-1101.48" as="targetPoint"/>
                    </mxGeometry>
                </mxCell>
                <mxCell id="146" style="edgeStyle=none;html=1;endArrow=none;endFill=0;" edge="1" parent="1" source="152" target="154">
                    <mxGeometry relative="1" as="geometry">
                        <mxPoint x="432.5000000000002" y="-1061.48" as="targetPoint"/>
                    </mxGeometry>
                </mxCell>
                <mxCell id="147" style="edgeStyle=none;html=1;endArrow=none;endFill=0;" edge="1" parent="1" source="152" target="155">
                    <mxGeometry relative="1" as="geometry">
                        <mxPoint x="442.5000000000002" y="-1001.48" as="targetPoint"/>
                    </mxGeometry>
                </mxCell>
                <mxCell id="148" style="edgeStyle=none;html=1;endArrow=none;endFill=0;" edge="1" parent="1" source="152" target="156">
                    <mxGeometry relative="1" as="geometry">
                        <mxPoint x="212.5" y="-1061.48" as="targetPoint"/>
                    </mxGeometry>
                </mxCell>
                <mxCell id="149" style="edgeStyle=none;html=1;endArrow=none;endFill=0;" edge="1" parent="1" source="152" target="157">
                    <mxGeometry relative="1" as="geometry">
                        <mxPoint x="422.5" y="-1051.48" as="targetPoint"/>
                    </mxGeometry>
                </mxCell>
                <mxCell id="150" style="edgeStyle=none;html=1;endArrow=none;endFill=0;" edge="1" parent="1" source="152" target="158">
                    <mxGeometry relative="1" as="geometry">
                        <mxPoint x="172.5" y="-1011.48" as="targetPoint"/>
                    </mxGeometry>
                </mxCell>
                <mxCell id="151" style="edgeStyle=none;html=1;endArrow=none;endFill=0;" edge="1" parent="1" source="152" target="159">
                    <mxGeometry relative="1" as="geometry">
                        <mxPoint x="422.5" y="-991.48" as="targetPoint"/>
                    </mxGeometry>
                </mxCell>
                <mxCell id="152" value="Usuario no Autenticado" style="shape=umlActor;verticalLabelPosition=bottom;verticalAlign=top;html=1;outlineConnect=0;" vertex="1" parent="1">
                    <mxGeometry x="292.5" y="-1011.48" width="30" height="60" as="geometry"/>
                </mxCell>
                <mxCell id="153" value="Iniciar sesi칩n" style="ellipse;whiteSpace=wrap;html=1;" vertex="1" parent="1">
                    <mxGeometry x="100" y="-991.48" width="87.5" height="40" as="geometry"/>
                </mxCell>
                <mxCell id="154" value="Iniciar sesi칩n con Google" style="ellipse;whiteSpace=wrap;html=1;" vertex="1" parent="1">
                    <mxGeometry x="112.5" y="-1101.48" width="110" height="60" as="geometry"/>
                </mxCell>
                <mxCell id="155" value="Iniciar sesi칩n con GitHub" style="ellipse;whiteSpace=wrap;html=1;" vertex="1" parent="1">
                    <mxGeometry x="332.5" y="-1126.48" width="120" height="50" as="geometry"/>
                </mxCell>
                <mxCell id="156" value="Registrarse con Google" style="ellipse;whiteSpace=wrap;html=1;" vertex="1" parent="1">
                    <mxGeometry x="212.5" y="-1136.48" width="110" height="60" as="geometry"/>
                </mxCell>
                <mxCell id="157" value="Registrarse con GitHub" style="ellipse;whiteSpace=wrap;html=1;" vertex="1" parent="1">
                    <mxGeometry x="402.5" y="-1071.48" width="110" height="50" as="geometry"/>
                </mxCell>
                <mxCell id="158" value="Registrarse" style="ellipse;whiteSpace=wrap;html=1;" vertex="1" parent="1">
                    <mxGeometry x="100" y="-1036.48" width="90" height="40" as="geometry"/>
                </mxCell>
                <mxCell id="159" value="Recibir c칩digo de verificaci칩n" style="ellipse;whiteSpace=wrap;html=1;" vertex="1" parent="1">
                    <mxGeometry x="412.5" y="-1001.48" width="110" height="50" as="geometry"/>
                </mxCell>
            </root>
        </mxGraphModel>
    </diagram>
</mxfile>